:FULLY-SPECIFIED
:DEGREES
298
root 4.27155 16.4414 -2.69094 249.801 -87.3313 -245.111
lowerback 3.09548 0.15258 -2.96509
upperback 1.31299 0.107989 0.507803
thorax -0.39454 0.0379919 2.18024
lowerneck -18.4767 -0.64205 -0.528438
upperneck 19.122 -1.45268 2.70259
head 9.08126 -0.453529 0.817403
rclavicle -7.95139e-016 -9.54166e-015
rhumerus -31.276 -4.22975 -81.7899
rradius 20.4605
rwrist 31.0798
rhand -25.4395 2.12707
rfingers 7.12502
rthumb 1.08705 -27.8499
lclavicle -7.95139e-016 -9.54166e-015
lhumerus -23.4008 1.2706 90.0951
lradius 21.9471
lwrist -14.4281
lhand -27.6532 1.44216
lfingers 7.12502
lthumb -1.05097 31.4193
rfemur -27.6446 13.728 14.141
rtibia 15.3621
rfoot -5.12113 -16.6634
rtoes -17.2145
lfemur 0.712555 -13.2781 -28.7515
ltibia 14.2531
lfoot -16.8247 4.38173
ltoes -6.32913
299
root 4.26373 16.4231 -2.71129 250.95 -87.2862 -246.215
lowerback 3.0597 0.11977 -3.04038
upperback 1.26907 0.0636318 0.535184
thorax -0.416945 0.0167618 2.25219
lowerneck -18.5419 -0.598587 -0.411442
upperneck 19.2163 -1.3923 2.54045
head 9.12239 -0.433752 0.750631
rclavicle 1.88845e-015 2.06736e-014
rhumerus -31.3182 -4.39859 -81.6644
rradius 20.3068
rwrist 31.3576
rhand -25.3857 2.21344
rfingers 7.12502
rthumb 1.13908 -27.7633
lclavicle 1.88845e-015 2.06736e-014
lhumerus -23.5871 1.56459 90.0753
lradius 21.7982
lwrist -14.6367
lhand -27.5687 1.43355
lfingers 7.12502
lthumb -0.969396 31.4111
rfemur -27.6309 12.9594 14.6287
rtibia 16.3154
rfoot -5.6556 -15.8793
rtoes -17.5691
lfemur 1.22447 -13.5369 -28.8694
ltibia 14.124
lfoot -17.0995 4.57001
ltoes -6.65378
300
root 4.25383 16.4029 -2.73224 252.132 -87.281 -247.346
lowerback 2.971 0.0839266 -3.06432
upperback 1.2425 0.0186353 0.573768
thorax -0.391772 -0.00566948 2.30678
lowerneck -18.5609 -0.548476 -0.46554
upperneck 19.2844 -1.31609 2.56501
head 9.14855 -0.399156 0.778258
rclavicle 3.97569e-016 1.03368e-014
rhumerus -31.3231 -4.64631 -81.5073
rradius 20.2384
rwrist 31.6959
rhand -25.1637 2.02165
rfingers 7.12502
rthumb 1.35347 -27.9538
lclavicle 3.97569e-016 1.03368e-014
lhumerus -23.7827 1.59604 90.1231
lradius 21.6816
lwrist -14.5142
lhand -27.4917 1.39834
lfingers 7.12502
lthumb -0.894955 31.3762
rfemur -27.5587 12.2311 15.1542
rtibia 17.3939
rfoot -6.33659 -15.2697
rtoes -16.9896
lfemur 1.66847 -13.7387 -28.9398
ltibia 14.1049
lfoot -17.3885 4.72342
ltoes -7.09591
301
root 4.24251 16.3836 -2.7543 254.103 -87.3144 -249.225
lowerback 2.84979 0.0201098 -3.03298
upperback 1.2016 -0.0611685 0.590664
thorax -0.360938 -0.0451079 2.30894
lowerneck -18.593 -0.480521 -0.359925
upperneck 19.3197 -1.2318 2.47032
head 9.16385 -0.3621 0.739496
rclavicle -2.28602e-015 -2.38542e-015
rhumerus -31.3203 -4.89354 -81.4242
rradius 20.1507
rwrist 31.7556
rhand -25.1289 2.1536
rfingers 7.12502
rthumb 1.38711 -27.8216
lclavicle -2.28602e-015 -2.38542e-015
lhumerus -23.9939 1.91471 90.0528
lradius 21.5298
lwrist -14.6959
lhand -27.3799 1.53346
lfingers 7.12502
lthumb -0.787041 31.5117
rfemur -27.4561 11.5719 15.6784
rtibia 18.5328
rfoot -6.9368 -14.8399
rtoes -16.4089
lfemur 2.07702 -13.9349 -28.9571
ltibia 14.0818
lfoot -17.6457 4.80772
ltoes -7.61275
302
root 4.22644 16.363 -2.77718 257.786 -87.2623 -252.824
lowerback 2.71309 -0.0492683 -3.14119
upperback 1.13451 -0.151434 0.615119
thorax -0.347138 -0.0894036 2.39738
lowerneck -18.5932 -0.448394 -0.317754
upperneck 19.3716 -1.17662 2.36289
head 9.17989 -0.345155 0.703036
rclavicle 2.18663e-015 -6.36111e-015
rhumerus -31.4704 -5.07351 -81.3166
rradius 20.1991
rwrist 31.6276
rhand -25.1371 2.03662
rfingers 7.12502
rthumb 1.37913 -27.9387
lclavicle 2.18663e-015 -6.36111e-015
lhumerus -24.3045 2.00159 90.0737
lradius 21.4126
lwrist -14.7225
lhand -27.1732 1.50717
lfingers 7.12502
lthumb -0.587403 31.4861
rfemur -27.1892 10.8352 16.1279
rtibia 19.5062
rfoot -7.40036 -14.4899
rtoes -16.4205
lfemur 2.59514 -14.1811 -29.092
ltibia 13.9176
lfoot -17.7732 4.85421
ltoes -8.13447
303
root 4.21256 16.3542 -2.80087 262.59 -87.3019 -257.467
lowerback 2.5328 -0.154053 -3.14647
upperback 1.05047 -0.284605 0.662022
thorax -0.323491 -0.154746 2.4518
lowerneck -18.5841 -0.394064 -0.351529
upperneck 19.4202 -1.08986 2.34608
head 9.19371 -0.309155 0.714455
rclavicle 7.15625e-015 7.95139e-016
rhumerus -31.5316 -5.22196 -81.2384
rradius 20.2173
rwrist 31.4367
rhand -25.1036 2.19877
rfingers 7.12502
rthumb 1.41153 -27.7763
lclavicle 7.15625e-015 7.95139e-016
lhumerus -24.573 2.1153 90.0799
lradius 21.2343
lwrist -14.7595
lhand -27.0682 1.44666
lfingers 7.12502
lthumb -0.485948 31.4258
rfemur -26.9338 10.4903 16.4636
rtibia 20.1313
rfoot -7.025 -14.453
rtoes -16.3074
lfemur 3.00035 -14.4625 -29.0875
ltibia 13.7186
lfoot -17.6862 4.92241
ltoes -9.22728
304
root 4.19848 16.3668 -2.82443 267.146 -87.4112 -261.839
lowerback 2.36257 -0.222416 -2.96964
upperback 0.981259 -0.365888 0.676261
thorax -0.294998 -0.194079 2.36842
lowerneck -18.6913 -0.382047 -0.323114
upperneck 19.4384 -1.07836 2.33449
head 9.21912 -0.301629 0.707466
rclavicle -3.37934e-015 -1.98785e-015
rhumerus -31.6134 -5.34374 -81.2511
rradius 20.2904
rwrist 31.211
rhand -25.1789 1.98156
rfingers 7.12502
rthumb 1.33879 -27.994
lclavicle -3.37934e-015 -1.98785e-015
lhumerus -24.7765 2.07217 90.0882
lradius 21.0632
lwrist -14.7308
lhand -26.907 1.56462
lfingers 7.12502
lthumb -0.330257 31.5441
rfemur -27.0371 11.005 16.4426
rtibia 20.4311
rfoot -6.1226 -15.3766
rtoes -16.7094
lfemur 3.36268 -14.8096 -28.9699
ltibia 13.5629
lfoot -17.6392 4.96203
ltoes -10.0033
305
root 4.18562 16.3708 -2.84813 272.124 -87.5842 -266.631
lowerback 2.20924 -0.300371 -2.79804
upperback 0.899642 -0.46092 0.784573
thorax -0.287398 -0.240072 2.38487
lowerneck -18.6637 -0.354078 -0.350632
upperneck 19.3611 -1.00951 2.25699
head 9.18571 -0.280224 0.694287
rclavicle -6.55989e-015 9.14409e-015
rhumerus -31.7183 -5.57847 -81.0941
rradius 20.3803
rwrist 31.2087
rhand -25.2079 2.04591
rfingers 7.12502
rthumb 1.31082 -27.9298
lclavicle -6.55989e-015 9.14409e-015
lhumerus -24.9925 2.13194 90.1729
lradius 20.8043
lwrist -14.7456
lhand -26.7643 1.56965
lfingers 7.12502
lthumb -0.192409 31.5493
rfemur -27.2294 11.9314 16.2521
rtibia 20.4905
rfoot -5.54268 -16.9279
rtoes -17.6247
lfemur 3.64538 -15.0448 -28.7664
ltibia 13.5228
lfoot -17.4372 5.00607
ltoes -11.5328
306
root 4.171 16.3711 -2.8717 276.88 -87.71 -271.254
lowerback 2.10419 -0.368002 -2.65643
upperback 0.830916 -0.544887 0.8792
thorax -0.294282 -0.280734 2.4039
lowerneck -18.7367 -0.31405 -0.288566
upperneck 19.3715 -0.935006 2.10221
head 9.20015 -0.257146 0.640805
rclavicle -2.38542e-015 -9.14409e-015
rhumerus -31.8982 -5.51759 -81.0756
rradius 20.5099
rwrist 31.0142
rhand -25.5736 2.04975
rfingers 7.12502
rthumb 0.957583 -27.9278
lclavicle -2.38542e-015 -9.14409e-015
lhumerus -25.2221 2.44914 90.1623
lradius 20.4655
lwrist -15.1483
lhand -26.7636 1.44201
lfingers 7.12502
lthumb -0.191721 31.4217
rfemur -27.144 12.3793 16.2576
rtibia 20.4635
rfoot -4.83969 -17.8078
rtoes -18.146
lfemur 3.88174 -15.3113 -28.6288
ltibia 13.6966
lfoot -17.4405 5.07085
ltoes -12.3519
307
root 4.15847 16.3707 -2.89351 280.767 -87.9399 -275.027
lowerback 2.02021 -0.395926 -2.35406
upperback 0.807967 -0.574052 0.97867
thorax -0.271102 -0.295058 2.33612
lowerneck -18.8539 -0.293869 -0.225401
upperneck 19.3122 -0.889978 1.96918
head 9.19911 -0.244704 0.590621
rclavicle 5.46658e-015 -1.39149e-014
rhumerus -31.9862 -5.57327 -81.0302
rradius 20.649
rwrist 30.5899
rhand -25.6746 2.10122
rfingers 7.12502
rthumb 0.859978 -27.8768
lclavicle 5.46658e-015 -1.39149e-014
lhumerus -25.3785 2.69332 90.1612
lradius 20.1362
lwrist -15.4811
lhand -26.636 1.59112
lfingers 7.12502
lthumb -0.0685317 31.5709
rfemur -26.9356 12.3863 16.6094
rtibia 20.5248
rfoot -3.948 -17.7344
rtoes -17.1258
lfemur 3.93312 -15.4637 -28.378
ltibia 14.2863
lfoot -17.5329 5.09106
ltoes -13.2607
308
root 4.14974 16.3743 -2.91634 284.58 -88.0855 -278.694
lowerback 1.95813 -0.421242 -2.18051
upperback 0.753356 -0.603009 1.08108
thorax -0.291383 -0.308518 2.34412
lowerneck -18.8167 -0.266 -0.19839
upperneck 19.1386 -0.82825 1.86807
head 9.13074 -0.225017 0.559241
rclavicle 7.45443e-015 -4.77083e-015
rhumerus -32.0328 -5.61052 -80.9211
rradius 20.6762
rwrist 30.7851
rhand -25.7963 2.06358
rfingers 7.12502
rthumb 0.74246 -27.9149
lclavicle 7.45443e-015 -4.77083e-015
lhumerus -25.5703 2.9754 90.1632
lradius 19.7807
lwrist -15.766
lhand -26.6369 1.47404
lfingers 7.12502
lthumb -0.0694209 31.4538
rfemur -26.7966 12.0697 17.0437
rtibia 20.8756
rfoot -3.56656 -17.1854
rtoes -16.2561
lfemur 3.80784 -15.5379 -28.1781
ltibia 15.086
lfoot -17.693 5.04868
ltoes -14.1435
